<?xml version="1.0"?>
<!DOCTYPE svg PUBLIC "-//W3C//DTD SVG 1.1//EN" "http://www.w3.org/Graphics/SVG/1.1/DTD/svg11.dtd">
<svg version='1.1' width='255px' height='384px' xmlns='http://www.w3.org/2000/svg' xmlns:xlink='http://www.w3.org/1999/xlink'>
	<g transform="translate(127.1,192)">
		<path d="M 295.85 403.8 Q 299.65 406.65 299.65 412.25 Q 299.65 419.6 293.25 422.7 Q 294.7 424.35 295.65 426.3 L 299.45 433.9 L 303.3 435.15 L 303.3 440 L 292.8 440 L 288.05 429.75 Q 286.45 426.4 285.6 425.55 Q 284.8 424.65 282.6 424.65 L 280.6 424.65 L 280.6 433.8 L 284.7 435.15 L 284.7 440 L 267.55 440 L 267.55 435.15 L 271.8 433.8 L 271.8 407.5 L 267.55 405.85 L 267.55 401.25 L 284.9 400.95 Q 292.05 400.95 295.85 403.8 Z M 290.9 413.05 Q 290.9 410.6 289.4 409 Q 287.85 407.5 285.25 407.5 L 280.6 407.5 L 280.6 418.85 L 283.85 418.85 Q 287.2 418.85 289.05 417.3 Q 290.9 415.8 290.9 413.05 Z" transform="translate(-319.95,-480)" fill="#FFFFFF"/>
		<path d="M 304.75 414.95 L 304.75 410.55 L 317.3 410.1 L 317.3 429.1 Q 317.3 431.3 318 432.45 Q 318.75 433.5 320.45 433.5 Q 322.05 433.5 323.7 432.75 Q 325.35 432 326.3 431.25 L 327.15 430.45 L 327.15 415.95 L 322.95 414.95 L 322.95 410.55 L 335.5 410.1 L 335.5 434.15 L 339.8 435.3 L 339.8 439.6 L 328.2 440 L 327.65 436.1 L 327.1 436.6 L 325.65 437.65 Q 324.65 438.45 323.45 439 Q 322.3 439.6 320.7 440.05 Q 319.2 440.55 317.6 440.55 Q 313.35 440.55 311.15 437.95 Q 308.9 435.35 308.9 430.65 L 308.9 415.95 Z" transform="translate(-319.95,-480)" fill="#FFFFFF"/>
		<path d="M 355.55 416.9 L 355.55 429.4 Q 355.55 432.2 356.15 433.3 Q 356.85 434.4 358.55 434.4 Q 360.55 434.4 363.05 433.1 L 365.05 437.1 Q 360.1 440.55 355.45 440.55 Q 350.75 440.55 348.95 437.6 Q 347.2 434.55 347.2 427.25 L 347.2 416.9 L 341.95 416.9 L 341.95 411.65 L 347.2 410.9 L 347.2 403.3 L 355.55 401.8 L 355.55 410.9 L 363.5 410.9 L 363.5 416.9 Z" transform="translate(-319.95,-480)" fill="#FFFFFF"/>
		<path d="M 393.8 420.5 L 393.8 434.15 L 398.05 435.15 L 398.05 439.6 L 386.85 440 L 385.8 436.4 L 384.45 437.5 Q 383.7 438.2 381.2 439.35 Q 378.8 440.55 376.65 440.55 Q 372.45 440.55 370.15 438.25 Q 367.85 436.05 367.85 431.85 Q 367.85 422.7 381.45 422.7 L 385.4 422.7 L 385.4 419.65 Q 385.4 415.5 381.05 415.5 Q 379.9 415.5 378.5 415.75 Q 377.25 415.95 376.65 416.2 L 376.05 416.35 L 375.2 419.95 L 370.1 419.95 L 369.7 411.75 Q 376.7 409.55 382 409.55 Q 388.5 409.55 391.15 412 Q 393.8 414.5 393.8 420.5 Z M 376 431 Q 376 434.35 379.35 434.35 Q 380.6 434.35 382.2 433.55 Q 383.75 432.7 384.55 431.9 L 385.4 431.15 L 385.4 427.4 L 382.2 427.4 Q 378.9 427.4 377.45 428.3 Q 376 429.15 376 431 Z" transform="translate(-319.95,-480)" fill="#FFFFFF"/>
		<path d="M 267.95 459.35 L 296.6 458.9 Q 306.65 458.9 312.3 463.8 Q 318 468.75 318 477.4 Q 318 488.35 311.55 493.9 Q 305.05 499.45 292.9 499.45 L 288.2 499.45 L 288.2 511.15 L 294.8 513.4 L 294.8 521.05 L 267.95 521.05 L 267.95 513.4 L 274.55 511.15 L 274.55 469.3 L 267.95 466.65 Z M 288.2 469.3 L 288.2 489.15 L 292.9 489.15 Q 298.45 489.15 301.4 486.55 Q 304.35 484 304.35 479.15 Q 304.35 474.8 302 472 Q 299.7 469.3 295.25 469.3 Z" transform="translate(-319.95,-480)" fill="#FDEC8B"/>
		<path d="M 318.8 513.4 L 325.25 511.35 L 344.65 459.15 L 358.75 458.9 L 377.7 511.35 L 383.9 513.4 L 383.9 521.05 L 355.85 521.05 L 355.85 513.4 L 362.45 511.35 L 360.35 504.75 L 340.75 504.75 L 338.55 511.25 L 345.45 513.4 L 345.45 521.05 L 318.8 521.05 Z M 357.45 495.3 L 350.8 474.4 L 343.85 495.3 Z" transform="translate(-319.95,-480)" fill="#FDEC8B"/>
		<path d="M 442.6 468.85 L 411.9 510.75 L 432 510.75 L 433.95 501.65 L 442.3 501.65 L 442.3 521.05 L 393.65 521.05 L 393.65 512.05 L 424.95 469.3 L 406.45 469.3 L 404.2 477.2 L 395.85 477.2 L 395.85 458.9 L 442.6 458.9 Z" transform="translate(-319.95,-480)" fill="#FDEC8B"/>
		<path d="M 421.4 412.3 Q 420.15 410.65 417.85 410.65 L 415.1 410.65 L 415.1 425.05 L 417.65 425.05 Q 420.05 425.05 421.3 423.35 Q 422.6 421.65 422.6 417.7 Q 422.6 413.95 421.4 412.3 Z M 418 407.05 Q 422.65 407.05 425.2 409.75 Q 427.75 412.45 427.75 417.55 Q 427.75 422.65 425 425.7 Q 422.2 428.65 417.55 428.65 L 408.05 428.65 L 408.05 426 L 410.35 425.2 L 410.35 410.65 L 408.05 409.75 L 408.05 407.2 Z" transform="translate(-319.95,-480)" fill="#FFFFFF"/>
		<path d="M 446.45 412.95 L 443.6 412.95 L 442.8 410.65 L 437.85 410.65 L 437.85 415.8 L 444.05 415.8 L 444.05 419.15 L 437.85 419.15 L 437.85 425.05 L 443.3 425.05 L 444 422.5 L 446.8 422.5 L 446.8 428.65 L 430.8 428.65 L 430.8 426 L 433.1 425.2 L 433.1 410.65 L 430.8 409.75 L 430.8 407.2 L 446.45 407.05 Z" transform="translate(-319.95,-480)" fill="#FFFFFF"/>
		<path d="M 331 294.9 L 319.3 314.15 Q 318.9 314.8 318.25 315.25 L 281.8 339.45 L 254.15 377.25 L 253.65 377.8 L 227.55 400.4 L 238.2 445.2 Q 238.45 446.25 238.05 447.3 L 217.9 498.05 Q 217.6 498.75 217.05 499.3 L 200.5 514.65 L 202.35 535.9 L 246.8 555.6 L 264.3 551.7 Q 265.65 551.4 266.9 552.1 L 308.25 577.55 Q 308.8 577.9 309.2 578.45 L 325.35 600.6 L 363.05 617.5 Q 364.7 618.25 365 619.9 L 367.5 631.35 Q 367.6 631.6 367.6 632.2 L 367 654.2 L 369.3 654.2 L 395.55 616.5 L 393.95 569.65 Q 393.9 568.2 394.9 567.2 Q 395.9 566.15 397.3 566.1 Q 398.7 566.05 399.75 567 Q 400.8 567.95 400.85 569.4 L 402.5 617.4 Q 402.5 618.65 401.85 619.5 L 373.9 659.65 Q 372.8 661.15 371.1 661.15 L 363.45 661.15 Q 362 661.15 360.95 660.1 Q 359.9 659 360 657.6 L 360.7 632.4 L 358.65 623.1 L 321.7 606.55 Q 320.95 606.2 320.35 605.45 L 304.05 583.1 L 264.45 558.75 L 247.2 562.55 Q 246.2 562.85 245.1 562.4 L 197.7 541.4 Q 195.8 540.5 195.65 538.55 L 193.45 513.55 Q 193.3 511.9 194.55 510.7 L 211.75 494.75 L 231.2 445.75 L 220.35 400 Q 219.85 397.95 221.45 396.55 L 248.85 372.85 L 276.6 334.85 Q 276.9 334.4 277.45 334 L 313.8 309.9 L 326.15 289.65 Q 327.1 288 329.1 288 L 346.45 288 Q 347.75 288 348.75 288.9 Q 349.75 289.75 349.9 291.1 L 351.95 311.4 Q 352.1 312.5 351.55 313.45 L 325.1 360.55 Q 324.4 361.8 323 362.2 Q 321.65 362.55 320.4 361.85 Q 319.15 361.15 318.8 359.75 Q 318.4 358.4 319.1 357.15 L 345 311.05 L 343.35 294.9 Z" transform="translate(-319.95,-480)" fill="#FFFFFF"/>
		<path d="M 233.25 389.65 Q 237.2 393.6 237.2 399.2 Q 237.2 404.75 233.25 408.7 Q 229.3 412.65 223.7 412.65 Q 218.15 412.65 214.2 408.7 Q 210.25 404.75 210.25 399.2 Q 210.25 393.6 214.2 389.65 Q 218.15 385.7 223.7 385.7 Q 229.3 385.7 233.25 389.65 Z" transform="translate(-319.95,-480)" fill="#FEF3A6"/>
		<path d="M 223.7 389.15 Q 219.55 389.15 216.65 392.1 Q 213.7 395.05 213.7 399.2 Q 213.7 403.35 216.65 406.25 Q 219.6 409.2 223.7 409.2 Q 227.85 409.2 230.8 406.25 Q 233.75 403.35 233.75 399.2 Q 233.75 395.05 230.8 392.1 Q 227.85 389.15 223.7 389.15 Z M 235.7 387.2 Q 240.65 392.2 240.65 399.2 Q 240.65 406.2 235.7 411.15 Q 230.7 416.1 223.7 416.1 Q 216.75 416.1 211.75 411.15 Q 206.8 406.2 206.8 399.2 Q 206.8 392.2 211.75 387.2 Q 216.7 382.25 223.7 382.25 Q 230.7 382.25 235.7 387.2 Z" transform="translate(-319.95,-480)" fill="#FFFFFF"/>
		<path d="M 319.9 580.5 Q 319.9 586.1 315.95 590 Q 312 593.95 306.45 593.95 Q 300.85 593.95 296.9 590 Q 292.95 586.1 292.95 580.5 Q 292.95 574.9 296.9 571 Q 300.85 567.05 306.45 567.05 Q 312 567.05 315.95 571 Q 319.9 574.9 319.9 580.5 Z" transform="translate(-319.95,-480)" fill="#F9B402"/>
		<path d="M 318.4 568.55 Q 323.35 573.55 323.35 580.5 Q 323.35 587.5 318.4 592.45 Q 313.45 597.4 306.45 597.4 Q 299.45 597.4 294.45 592.45 Q 289.5 587.5 289.5 580.5 Q 289.5 573.5 294.45 568.55 Q 299.45 563.6 306.45 563.6 Q 313.45 563.6 318.4 568.55 Z M 296.4 580.5 Q 296.4 584.65 299.35 587.55 Q 302.3 590.5 306.45 590.5 Q 310.6 590.5 313.5 587.55 Q 316.45 584.65 316.45 580.5 Q 316.45 576.4 313.5 573.45 Q 310.6 570.5 306.45 570.5 Q 302.3 570.5 299.35 573.45 Q 296.4 576.35 296.4 580.5 Z" transform="translate(-319.95,-480)" fill="#FFFFFF"/>
		<path d="M 223.25 541 Q 223.25 546.6 219.3 550.5 Q 215.35 554.45 209.8 554.45 Q 204.2 554.45 200.3 550.5 Q 196.35 546.6 196.35 541 Q 196.35 535.4 200.3 531.5 Q 204.2 527.55 209.8 527.55 Q 215.35 527.55 219.3 531.5 Q 223.25 535.4 223.25 541 Z" transform="translate(-319.95,-480)" fill="#FFD2D9"/>
		<path d="M 209.8 531 Q 205.65 531 202.7 533.95 Q 199.8 536.85 199.8 541 Q 199.8 545.15 202.7 548.05 Q 205.65 551 209.8 551 Q 213.95 551 216.85 548.05 Q 219.8 545.15 219.8 541 Q 219.8 536.9 216.85 533.95 Q 213.95 531 209.8 531 Z M 226.7 541 Q 226.7 548 221.75 552.95 Q 216.8 557.9 209.8 557.9 Q 202.8 557.9 197.8 552.95 Q 192.85 548 192.85 541 Q 192.85 534 197.8 529.05 Q 202.8 524.1 209.8 524.1 Q 216.8 524.1 221.75 529.05 Q 226.7 534 226.7 541 Z" transform="translate(-319.95,-480)" fill="#FFFFFF"/>
		<path d="M 397.4 556.1 Q 403 556.1 406.9 560.05 Q 410.85 563.95 410.85 569.55 Q 410.85 575.15 406.9 579.05 Q 403 583 397.4 583 Q 391.8 583 387.9 579.05 Q 383.95 575.15 383.95 569.55 Q 383.95 563.95 387.9 560.05 Q 391.8 556.1 397.4 556.1 Z" transform="translate(-319.95,-480)" fill="#D5BCDE"/>
		<path d="M 390.35 562.45 Q 387.4 565.4 387.4 569.55 Q 387.4 573.7 390.35 576.6 Q 393.3 579.55 397.4 579.55 Q 401.55 579.55 404.5 576.6 Q 407.4 573.7 407.4 569.55 Q 407.4 565.4 404.5 562.45 Q 401.55 559.55 397.4 559.55 Q 393.25 559.55 390.35 562.45 Z M 397.4 552.65 Q 404.4 552.65 409.35 557.6 Q 414.3 562.55 414.3 569.55 Q 414.3 576.55 409.35 581.5 Q 404.4 586.45 397.4 586.45 Q 390.45 586.45 385.45 581.5 Q 380.5 576.55 380.5 569.55 Q 380.5 562.55 385.45 557.6 Q 390.4 552.65 397.4 552.65 Z" transform="translate(-319.95,-480)" fill="#FFFFFF"/>
		<path d="M 335.55 358.85 Q 335.55 364.4 331.6 368.35 Q 327.65 372.3 322.1 372.3 Q 316.5 372.3 312.55 368.35 Q 308.6 364.4 308.6 358.85 Q 308.6 353.25 312.55 349.3 Q 316.5 345.35 322.1 345.35 Q 327.65 345.35 331.6 349.3 Q 335.55 353.25 335.55 358.85 Z" transform="translate(-319.95,-480)" fill="#95E1E0"/>
		<path d="M 329.15 351.75 Q 326.25 348.85 322.1 348.85 Q 317.95 348.85 315 351.75 Q 312.1 354.7 312.1 358.85 Q 312.1 363 315 365.9 Q 317.95 368.85 322.1 368.85 Q 326.25 368.85 329.15 365.9 Q 332.1 363 332.1 358.85 Q 332.1 354.7 329.15 351.75 Z M 334.05 370.8 Q 329.1 375.75 322.1 375.75 Q 315.1 375.75 310.1 370.8 Q 305.15 365.85 305.15 358.85 Q 305.15 351.85 310.1 346.85 Q 315.1 341.9 322.1 341.9 Q 329.1 341.9 334.05 346.85 Q 339 351.85 339 358.85 Q 339 365.85 334.05 370.8 Z" transform="translate(-319.95,-480)" fill="#FFFFFF"/>
		<path d="M 354.65 645.55 Q 358.55 641.6 364.15 641.6 Q 369.75 641.6 373.65 645.55 Q 377.6 649.5 377.6 655.05 Q 377.6 660.65 373.65 664.55 Q 369.75 668.5 364.15 668.5 Q 358.55 668.5 354.65 664.55 Q 350.7 660.65 350.7 655.05 Q 350.7 649.5 354.65 645.55 Z" transform="translate(-319.95,-480)" fill="#BAD7E6"/>
		<path d="M 364.15 638.15 Q 371.15 638.15 376.1 643.1 Q 381.05 648.1 381.05 655.05 Q 381.05 662.05 376.1 667.05 Q 371.15 672 364.15 672 Q 357.15 672 352.2 667.05 Q 347.25 662.05 347.25 655.05 Q 347.25 648.05 352.2 643.1 Q 357.15 638.15 364.15 638.15 Z M 364.15 665.05 Q 368.3 665.05 371.2 662.15 Q 374.15 659.2 374.15 655.05 Q 374.15 650.95 371.2 648 Q 368.3 645.05 364.15 645.05 Q 360.05 645.05 357.1 648 Q 354.15 650.95 354.15 655.05 Q 354.15 659.2 357.1 662.15 Q 360 665.05 364.15 665.05 Z" transform="translate(-319.95,-480)" fill="#FFFFFF"/>
		<path d="M 447.1 440.55 L 407.8 440.55 L 407.8 435 L 447.1 435 Z" transform="translate(-319.95,-480)" fill="#FFFFFF"/>
	</g>
</svg>
